<svg xmlns="http://www.w3.org/2000/svg" viewBox="0 0 645.83 731.23"><defs><style>.cls-1,.cls-3,.cls-4,.cls-5,.cls-6{fill:none;}.cls-1{stroke:#a7d231;}.cls-1,.cls-6{stroke-linecap:round;}.cls-1,.cls-2,.cls-3,.cls-4,.cls-5,.cls-6{stroke-miterlimit:10;}.cls-1,.cls-2{stroke-width:14px;}.cls-2,.cls-7{fill:#a7d231;}.cls-2,.cls-3,.cls-4,.cls-5,.cls-6{stroke:#0c5933;}.cls-3{stroke-width:10px;}.cls-4{stroke-width:5px;}.cls-5{stroke-width:6px;}.cls-6{stroke-width:20px;}.cls-8{fill:#0c5933;}</style></defs><title>Ebene 1</title><g id="Ebene_2" data-name="Ebene 2"><g id="Ebene_1-2" data-name="Ebene 1"><path class="cls-1" d="M10,313.69c10.92,11.07,26.81,23.61,43.18,21.06s19-18.19,36.54-21.06c20.42-3.33,26.65,16.18,51.49,16.36,23.25.17,26.66-16.86,49.83-16.36,22.77.49,25.4,17.06,48.17,17.93,24.77.94,28.94-18.39,53.15-17.93,26.78.51,34.07,24.42,56.47,21.06,17.37-2.61,19.71-18,36.54-21.06,18.22-3.31,36.63,10.91,49.83,24.19"/><path class="cls-2" d="M276.83,563,377.05,462.74c55,55,55,145.46,0,200.44s-145.47,55-200.44,0Z"/><line class="cls-3" x1="419.24" y1="568.44" x2="419.24" y2="568.44"/><line class="cls-3" x1="418.93" y1="575" x2="418.93" y2="575"/><line class="cls-3" x1="405.06" y1="623.12" x2="405.06" y2="623.12"/><line class="cls-4" x1="392.95" y1="644.19" x2="392.95" y2="644.19"/><line class="cls-5" x1="276.83" y1="562.96" x2="413.73" y2="526.28"/><line class="cls-4" x1="400.67" y1="631.78" x2="400.67" y2="631.78"/><line class="cls-5" x1="276.83" y1="562.96" x2="313.51" y2="699.87"/><line class="cls-5" x1="276.83" y1="562.96" x2="377.05" y2="663.18"/><line class="cls-4" x1="348.78" y1="685.02" x2="348.78" y2="685.02"/><line class="cls-5" x1="276.83" y1="562.96" x2="413.73" y2="599.65"/><line class="cls-4" x1="401.93" y1="629.44" x2="401.93" y2="629.44"/><line class="cls-5" x1="276.83" y1="562.96" x2="240.14" y2="699.87"/><path class="cls-6" d="M10,209.62V719.86"/><line class="cls-6" x1="435.2" y1="209.62" x2="435.2" y2="719.86"/><line class="cls-6" x1="10" y1="721.23" x2="435.2" y2="721.23"/><path class="cls-7" d="M150.41,49.39a10.28,10.28,0,0,1,3,7.59,14.35,14.35,0,0,1-.88,4.18l-33.66,95a9.83,9.83,0,0,1-4.4,5.28,10.37,10.37,0,0,1-6.6,1.32q-5.94-.44-9-6.6L75.94,96.36,54.82,156.2a10.5,10.5,0,0,1-9,6.6,10,10,0,0,1-6.49-1.43A9.21,9.21,0,0,1,35,156.2l-34.1-95A13.12,13.12,0,0,1,.26,57,10.6,10.6,0,0,1,3.12,49.5a9.73,9.73,0,0,1,7.48-3.08q7.47,0,9.68,6.6l26.18,74.14,20.9-54.78Q70,65.78,77,65.78q6.6,0,9,6.6l21.34,53.9L133.14,53q2.42-6.6,10.12-6.6A9.76,9.76,0,0,1,150.41,49.39Z"/><path class="cls-7" d="M273.94,107.47a10.54,10.54,0,0,1-7.26,2.75H189.24q1.53,16.07,12.21,25.74t26.07,9.68q10.56,0,17.16-3.08a43,43,0,0,0,11.66-7.92,12.39,12.39,0,0,1,6.38-2A8.35,8.35,0,0,1,269,135.3a8.66,8.66,0,0,1,2.53,6.16q0,4.62-4.4,8.36a51.7,51.7,0,0,1-16.94,10.78,55.65,55.65,0,0,1-21.56,4.4q-17.82,0-31.35-7.48a52,52,0,0,1-20.9-20.9A61.91,61.91,0,0,1,169,106.26q0-18.48,7.59-32.45a55,55,0,0,1,20-21.45,51.56,51.56,0,0,1,53.13-.22,55.25,55.25,0,0,1,19.8,20,57.22,57.22,0,0,1,7.7,28.6A9.42,9.42,0,0,1,273.94,107.47ZM202,71.17q-9,6.93-11.88,21.45H255V90.86a26.92,26.92,0,0,0-10.45-19.14,33.12,33.12,0,0,0-21.23-7.48A34,34,0,0,0,202,71.17Z"/><path class="cls-7" d="M386.36,52.58a53.4,53.4,0,0,1,19,21.34,67,67,0,0,1,6.93,30.8,68.39,68.39,0,0,1-6.93,31,53,53,0,0,1-19,21.56,48.54,48.54,0,0,1-26.62,7.7,46.25,46.25,0,0,1-21.34-5.06,49.62,49.62,0,0,1-16.06-12.54v6.38a10.36,10.36,0,0,1-3,7.48,10.1,10.1,0,0,1-7.59,3.08,10,10,0,0,1-7.37-3,10.28,10.28,0,0,1-3-7.59V10.56A10.48,10.48,0,0,1,304.3,3a9.9,9.9,0,0,1,7.48-3,10.1,10.1,0,0,1,7.59,3.08,10.39,10.39,0,0,1,3,7.48V64.24q5.28-7.92,15.4-13.64a43.14,43.14,0,0,1,21.56-5.72A49.39,49.39,0,0,1,386.36,52.58Zm-11.22,87.67a36,36,0,0,0,12.65-14.74,47.3,47.3,0,0,0,4.51-20.79A46.63,46.63,0,0,0,387.79,84a35.47,35.47,0,0,0-12.65-14.52,34.6,34.6,0,0,0-36.74,0,35.52,35.52,0,0,0-12.65,14.41,46.31,46.31,0,0,0-4.51,20.79,47,47,0,0,0,4.51,20.9,36.08,36.08,0,0,0,12.65,14.63,34,34,0,0,0,36.74,0Z"/><path class="cls-7" d="M586.87,274.4H521.31q-11,0-11,9.9a16,16,0,0,0,.77,4.18,15.7,15.7,0,0,1,.77,4.18,6,6,0,0,1-2.42,4.84,9.39,9.39,0,0,1-6.16,2q-4.62,0-7.92-5.28a22,22,0,0,1-3.3-11.88A54.28,54.28,0,0,1,493.59,269q1.55-6,7.81-10.78t19-4.73h66.44V240.74a9.4,9.4,0,0,1,9.68-9.68,9,9,0,0,1,6.82,2.75,9.63,9.63,0,0,1,2.64,6.93V253.5h18.48a10.36,10.36,0,0,1,7.48,3,10.06,10.06,0,0,1,3.08,7.59,9.79,9.79,0,0,1-3.08,7.37,10.36,10.36,0,0,1-7.48,3H606v18.26a9.4,9.4,0,0,1-9.68,9.68,9,9,0,0,1-6.82-2.75,9.59,9.59,0,0,1-2.64-6.93Z"/><path class="cls-7" d="M518.89,427.08a55.94,55.94,0,0,1-21.34-21,59.86,59.86,0,0,1,0-58.74,56.08,56.08,0,0,1,21.34-21,61.6,61.6,0,0,1,30.8-7.7,62.82,62.82,0,0,1,31,7.7,55.56,55.56,0,0,1,21.56,21,59.86,59.86,0,0,1,0,58.74,55.43,55.43,0,0,1-21.56,21,62.71,62.71,0,0,1-31,7.7A61.5,61.5,0,0,1,518.89,427.08Zm52-18.15a36.6,36.6,0,0,0,14.52-13.42,36.8,36.8,0,0,0,0-37.62,36.68,36.68,0,0,0-14.52-13.42,44.67,44.67,0,0,0-21.23-5,43.56,43.56,0,0,0-20.9,5,37,37,0,0,0-14.41,13.42,36.8,36.8,0,0,0,0,37.62,36.9,36.9,0,0,0,14.41,13.42,43.56,43.56,0,0,0,20.9,4.95A44.67,44.67,0,0,0,570.92,408.93Z"/><path class="cls-7" d="M562.45,557.32H502.61a10.39,10.39,0,0,1-7.48-3,10.1,10.1,0,0,1-3.08-7.59,9.84,9.84,0,0,1,3.08-7.37,10.39,10.39,0,0,1,7.48-3h59.62q13,0,20.68-5.94t7.7-19.36a33.06,33.06,0,0,0-3.85-15.95A29.27,29.27,0,0,0,576.42,484a26.19,26.19,0,0,0-14.19-4.07H502.61a10.39,10.39,0,0,1-7.48-3,10.1,10.1,0,0,1-3.08-7.59,9.92,9.92,0,0,1,3-7.48,10.48,10.48,0,0,1,7.59-2.86h94.16a10.36,10.36,0,0,1,7.48,3,9.81,9.81,0,0,1,3.08,7.37,10.06,10.06,0,0,1-3.08,7.59,10.36,10.36,0,0,1-7.48,3h-7.7a47.18,47.18,0,0,1,14.85,15.95A42.23,42.23,0,0,1,610,517.72Q610,557.32,562.45,557.32Z"/><path class="cls-7" d="M495.13,605.39a10.1,10.1,0,0,1-3.08-7.59,9.83,9.83,0,0,1,3.08-7.37,10.39,10.39,0,0,1,7.48-3h95.26a10.36,10.36,0,0,1,7.48,3,9.79,9.79,0,0,1,3.08,7.37,10.06,10.06,0,0,1-3.08,7.59,10.36,10.36,0,0,1-7.48,3H502.61A10.39,10.39,0,0,1,495.13,605.39Zm130.13-16.72c1.54-1.84,4-2.75,7.37-2.75h3.52c3.52,0,6,1,7.48,3s2.2,5,2.2,9.13-.77,7.07-2.31,8.91-4,2.75-7.37,2.75h-3.52c-3.52,0-6-1-7.48-2.86s-2.2-4.92-2.2-9Q623,591.41,625.26,588.67Z"/><path class="cls-7" d="M604.47,717.59q-5.49,11.55-14.08,11.55a10.37,10.37,0,0,1-6.71-2.42,7.62,7.62,0,0,1-3-6.16,9.73,9.73,0,0,1,.88-4.51,49.45,49.45,0,0,1,2.86-4.51,23.76,23.76,0,0,0,3.08-4.18,28.63,28.63,0,0,0,2.2-7.48,49.3,49.3,0,0,0,.88-8.8,38.54,38.54,0,0,0-5.28-20.24A35.87,35.87,0,0,0,570.7,657.2a44.48,44.48,0,0,0-20.79-4.84,45.13,45.13,0,0,0-20.9,4.73,35.85,35.85,0,0,0-14.52,13.31A36.58,36.58,0,0,0,509.21,690q0,11.43,3.52,18.48a45.29,45.29,0,0,0,2.86,4.18,24.74,24.74,0,0,1,2.64,3.85,8.51,8.51,0,0,1,.88,4.07,8.94,8.94,0,0,1-2.75,6.93,10.16,10.16,0,0,1-7.15,2.53q-4.62,0-9.13-5.83t-7.37-15.62a74.87,74.87,0,0,1-2.86-21q0-16.72,7.81-29.48a52.37,52.37,0,0,1,21.56-19.69,67.24,67.24,0,0,1,30.69-6.93,64.67,64.67,0,0,1,30.69,7.26A54,54,0,0,1,602.16,659q7.82,13,7.81,29.7Q610,706,604.47,717.59Z"/><path class="cls-8" d="M538.54,219.29a10,10,0,0,1-6.06,2.64,7.7,7.7,0,0,1-6.69-2.33,10.2,10.2,0,0,1-3.12-5.6l-2.48-26.14q-29.25,0-51.34-22.09a55.59,55.59,0,0,1-14.62-24.42,52.46,52.46,0,0,1-.86-26.68,44.56,44.56,0,0,1,11.9-21.86A47.69,47.69,0,0,1,490.4,79.2q14.22-2.72,30.56,4A58.53,58.53,0,0,1,524.85,70a32.75,32.75,0,0,1,6.85-10,36.7,36.7,0,0,1,17.81-10,38.83,38.83,0,0,1,21.23,1.16q11.06,3.59,20.69,13.23,10.74,10.73,15.09,22.71t1.4,20.84a15.17,15.17,0,0,1-3.73,5.92,7.91,7.91,0,0,1-6,2.41,9.26,9.26,0,0,1-6.45-3q-3.43-3.42-2.49-7.46a29,29,0,0,0-1.09-14.94q-2.49-7-9.34-13.84Q570.9,69,562.58,68.78a19.35,19.35,0,0,0-14.7,6.15q-5.61,5.59-7.32,15.4a198.07,198.07,0,0,0-2.33,25.35l-.31,5.91a418,418,0,0,0,.47,43.72,84.05,84.05,0,0,0,23-11.83c3.53-2.48,7.1-1.92,10.73,1.72a8.53,8.53,0,0,1,2.49,7.62,11,11,0,0,1-4.51,7.47,92.62,92.62,0,0,1-30.49,14.93q.78,12,2,24.42Q542,215.87,538.54,219.29Zm-19.75-50.56a440.86,440.86,0,0,1-.47-55.85q.15-4.51.78-11Q507.58,95.62,498.72,97t-16.18,8.71a32.4,32.4,0,0,0-8.4,14,30.12,30.12,0,0,0,.31,17.11q2.64,9.18,11.36,17.89A46.08,46.08,0,0,0,518.79,168.73Z"/></g></g></svg>